<svg width="130" height="26" viewBox="0 0 130 26" xmlns="http://www.w3.org/2000/svg">
  <g>
    <path d="M117.343 25.0543C115.238 25.0543 113.304 24.8827 111.543 24.5395C109.804 24.1734 108.225 23.7158 106.806 23.1667C105.411 22.6175 104.141 22.057 102.997 21.4849L105.914 15.6161C108.088 16.8058 110.25 17.6639 112.401 18.1901C114.551 18.7164 116.439 18.9795 118.064 18.9795C118.521 18.9795 119.047 18.9566 119.642 18.9109C120.26 18.8651 120.798 18.7393 121.255 18.5333C121.713 18.3045 121.942 17.927 121.942 17.4007C121.942 17.1491 121.862 16.9431 121.702 16.783C121.541 16.5999 121.29 16.4512 120.947 16.3368C120.603 16.2224 120.169 16.1309 119.642 16.0622C119.139 15.9707 118.533 15.9021 117.823 15.8563C117.114 15.7877 116.302 15.719 115.387 15.6504C113.739 15.536 112.24 15.2957 110.891 14.9296C109.563 14.5407 108.419 14.0373 107.458 13.4195C106.497 12.8017 105.754 12.0581 105.228 11.1886C104.701 10.2963 104.438 9.28955 104.438 8.1684C104.438 6.84132 104.77 5.6744 105.433 4.66765C106.097 3.63803 107.012 2.78 108.179 2.09358C109.369 1.40716 110.73 0.892346 112.263 0.549135C113.796 0.183045 115.432 0 117.171 0C118.979 0 120.592 0.148725 122.011 0.446174C123.452 0.743623 124.71 1.12115 125.786 1.57877C126.884 2.0135 127.788 2.43679 128.497 2.84864L125.443 7.89383C124.688 7.52774 123.807 7.21885 122.8 6.96716C121.816 6.71547 120.809 6.52099 119.78 6.3837C118.75 6.22354 117.778 6.14346 116.862 6.14346C115.993 6.14346 115.215 6.18922 114.529 6.28074C113.842 6.34938 113.293 6.49811 112.881 6.72691C112.492 6.93284 112.298 7.24173 112.298 7.65358C112.298 8.01967 112.515 8.30568 112.95 8.51161C113.385 8.71753 113.922 8.86626 114.563 8.95778C115.226 9.0493 115.89 9.11794 116.553 9.16371C117.24 9.18659 117.812 9.22091 118.27 9.26667C119.642 9.38107 121.004 9.54124 122.354 9.74716C123.727 9.93021 124.962 10.262 126.06 10.7425C127.182 11.223 128.074 11.9437 128.737 12.9047C129.401 13.8428 129.733 15.1241 129.733 16.7486C129.733 18.5333 129.184 20.0435 128.085 21.279C126.987 22.5146 125.5 23.4527 123.624 24.0933C121.747 24.734 119.654 25.0543 117.343 25.0543Z" fill="black"/>
    <path d="M88.4318 24.7112V13.9687L89.1182 16.6115L76.2135 0.686523H85.137L94.5066 12.8018H89.9419L99.0713 0.686523H107.446L95.7421 15.6848L95.9137 13.6942V24.7112H88.4318Z" fill="black"/>
    <path d="M55.3479 24.7112V0.686523H70.4148C72.1766 0.686523 73.744 1.04117 75.1168 1.75047C76.5125 2.45978 77.6108 3.4322 78.4116 4.66776C79.2353 5.90331 79.6472 7.32192 79.6472 8.92356C79.6472 10.6625 79.2124 12.2184 78.343 13.5912C77.4735 14.9412 76.2837 16.0051 74.7736 16.7831C73.2863 17.5381 71.6046 17.9157 69.7284 17.9157H62.7612V24.7112H55.3479ZM62.624 11.6006H68.081C68.7903 11.6006 69.4195 11.5091 69.9686 11.326C70.5407 11.1201 70.9983 10.8227 71.3415 10.4337C71.6847 10.0447 71.8563 9.5871 71.8563 9.06085C71.8563 8.58035 71.6847 8.19138 71.3415 7.89393C70.9983 7.59648 70.5407 7.37912 69.9686 7.24183C69.4195 7.08167 68.7903 7.00159 68.081 7.00159H62.624V11.6006Z" fill="black"/>
    <path d="M44.9798 24.7112L35.4385 13.8658L23.5292 0.686523H32.7615L41.9252 11.0858L54.2464 24.7112H44.9798ZM23.3575 24.7112L34.7864 11.6349L41.0672 14.3463L32.384 24.7112H23.3575ZM42.7489 13.5569L36.5368 10.9485L44.8082 0.686523H53.8689L42.7489 13.5569Z" fill="black"/>
    <path d="M0 24.7112V0.686523H22.7548V6.6927H7.10445V18.705H23.3726V24.7112H0ZM3.87827 15.3759V9.74727H21.4849V15.3759H3.87827Z" fill="black"/>
  </g>
</svg>
